# xmcd CD database file
#
# Track frame offsets:
#	150
#	15700
#	31657
#	56657
#	83502
#	110010
#
# Disc length: 1842 seconds
#
# Revision: 0
# Processed by: cddbd v1.5.2PL0 Copyright (c) Steve Scherf et al.
# Submitted via: CDex 1.51
#
DISCID=3d073006
DTITLE=Señor Coconut And His Orchestra - Smooth Operator
DYEAR=2003
DGENRE=Salsa
TTITLE0=Smooth Operator (Original Radio Edit)
TTITLE1=Smooth Operator (Good Groove Radio Edit)
TTITLE2=Smooth Operator (Version Suave)
TTITLE3=Smooth Operator (Good Groove Rmx)
TTITLE4=Smooth Operator (In-Disguise Mix Martin L. Gore Rmx)
TTITLE5=Smooth Operator (Agoria Rmx)
EXTD=YEAR: 2003
EXTT0=
EXTT1=
EXTT2=
EXTT3=
EXTT4=
EXTT5=
PLAYORDER=
